<svg height="420px" viewBox="0 0 576 432" width="560px" xmlns="http://www.w3.org/2000/svg" xmlns:xlink="http://www.w3.org/1999/xlink">

<title>Gnuplot</title>
<desc>Produced by GNUPLOT 4.6 patchlevel 4 </desc>

<g id="gnuplot_canvas">

<rect fill="none" height="432" width="576" x="0" y="0"/>
<defs>

	<circle id="gpDot" r="0.5" stroke-width="0.5"/>
	<path d="M-1,0 h2 M0,-1 v2" id="gpPt0" stroke="currentColor" stroke-width="0.333"/>
	<path d="M-1,-1 L1,1 M1,-1 L-1,1" id="gpPt1" stroke="currentColor" stroke-width="0.333"/>
	<path d="M-1,0 L1,0 M0,-1 L0,1 M-1,-1 L1,1 M-1,1 L1,-1" id="gpPt2" stroke="currentColor" stroke-width="0.333"/>
	<rect height="2" id="gpPt3" stroke="currentColor" stroke-width="0.333" width="2" x="-1" y="-1"/>
	<rect fill="currentColor" height="2" id="gpPt4" stroke="currentColor" stroke-width="0.333" width="2" x="-1" y="-1"/>
	<circle cx="0" cy="0" id="gpPt5" r="1" stroke="currentColor" stroke-width="0.333"/>
	<use fill="currentColor" id="gpPt6" stroke="none" xlink:href="#gpPt5"/>
	<path d="M0,-1.33 L-1.33,0.67 L1.33,0.67 z" id="gpPt7" stroke="currentColor" stroke-width="0.333"/>
	<use fill="currentColor" id="gpPt8" stroke="none" xlink:href="#gpPt7"/>
	<use id="gpPt9" stroke="currentColor" transform="rotate(180)" xlink:href="#gpPt7"/>
	<use fill="currentColor" id="gpPt10" stroke="none" xlink:href="#gpPt9"/>
	<use id="gpPt11" stroke="currentColor" transform="rotate(45)" xlink:href="#gpPt3"/>
	<use fill="currentColor" id="gpPt12" stroke="none" xlink:href="#gpPt11"/>
</defs>
<g style="fill:none; color:white; stroke:currentColor; stroke-width:1.00; stroke-linecap:butt; stroke-linejoin:miter">
</g>
<g style="fill:none; color:black; stroke:currentColor; stroke-width:1.00; stroke-linecap:butt; stroke-linejoin:miter">
	<g style="stroke:none; shape-rendering:crispEdges">
		<polygon fill="rgb(255, 255, 255)" points="54.0,393.6 559.0,393.6 559.0,11.4 54.0,11.4 "/>
	</g>
	<path d="M54.0,393.6 L54.0,11.4 L559.0,11.4 L559.0,393.6 L54.0,393.6  h0.01" stroke="black"/></g>
<g style="fill:none; color:black; stroke:black; stroke-width:0.50; stroke-linecap:butt; stroke-linejoin:miter">
	<path d="M54.0,393.6 L62.4,393.6 M559.1,393.6 L550.7,393.6  h0.01" stroke="black"/>	<g style="stroke:none; fill:rgb(0,0,0); font-family:{}; font-size:10.00pt; text-anchor:end" transform="translate(48.4,397.3)">
		<text><tspan>0</tspan></text>
	</g>
	<path d="M54.0,339.0 L62.4,339.0 M559.1,339.0 L550.7,339.0  h0.01" stroke="black"/>	<g style="stroke:none; fill:rgb(0,0,0); font-family:{}; font-size:10.00pt; text-anchor:end" transform="translate(48.4,342.7)">
		<text><tspan>1e+10</tspan></text>
	</g>
	<path d="M54.0,284.4 L62.4,284.4 M559.1,284.4 L550.7,284.4  h0.01" stroke="black"/>	<g style="stroke:none; fill:rgb(0,0,0); font-family:{}; font-size:10.00pt; text-anchor:end" transform="translate(48.4,288.1)">
		<text><tspan>2e+10</tspan></text>
	</g>
	<path d="M54.0,229.8 L62.4,229.8 M559.1,229.8 L550.7,229.8  h0.01" stroke="black"/>	<g style="stroke:none; fill:rgb(0,0,0); font-family:{}; font-size:10.00pt; text-anchor:end" transform="translate(48.4,233.5)">
		<text><tspan>3e+10</tspan></text>
	</g>
	<path d="M54.0,175.1 L62.4,175.1 M559.1,175.1 L550.7,175.1  h0.01" stroke="black"/>	<g style="stroke:none; fill:rgb(0,0,0); font-family:{}; font-size:10.00pt; text-anchor:end" transform="translate(48.4,178.8)">
		<text><tspan>4e+10</tspan></text>
	</g>
	<path d="M54.0,120.5 L62.4,120.5 M559.1,120.5 L550.7,120.5  h0.01" stroke="black"/>	<g style="stroke:none; fill:rgb(0,0,0); font-family:{}; font-size:10.00pt; text-anchor:end" transform="translate(48.4,124.2)">
		<text><tspan>5e+10</tspan></text>
	</g>
	<path d="M54.0,65.9 L62.4,65.9 M559.1,65.9 L550.7,65.9  h0.01" stroke="black"/>	<g style="stroke:none; fill:rgb(0,0,0); font-family:{}; font-size:10.00pt; text-anchor:end" transform="translate(48.4,69.6)">
		<text><tspan>6e+10</tspan></text>
	</g>
	<path d="M54.0,11.3 L62.4,11.3 M559.1,11.3 L550.7,11.3  h0.01" stroke="black"/>	<g style="stroke:none; fill:rgb(0,0,0); font-family:{}; font-size:10.00pt; text-anchor:end" transform="translate(48.4,15.0)">
		<text><tspan>7e+10</tspan></text>
	</g>
	<path d="M54.0,393.6 L54.0,385.2 M54.0,11.3 L54.0,19.7  h0.01" stroke="black"/>	<g style="stroke:none; fill:rgb(0,0,0); font-family:{}; font-size:10.00pt; text-anchor:middle" transform="translate(54.0,409.3)">
		<text><tspan>0</tspan></text>
	</g>
	<path d="M117.1,393.6 L117.1,385.2 M117.1,11.3 L117.1,19.7  h0.01" stroke="black"/>	<g style="stroke:none; fill:rgb(0,0,0); font-family:{}; font-size:10.00pt; text-anchor:middle" transform="translate(117.1,409.3)">
		<text><tspan>50</tspan></text>
	</g>
	<path d="M180.3,393.6 L180.3,385.2 M180.3,11.3 L180.3,19.7  h0.01" stroke="black"/>	<g style="stroke:none; fill:rgb(0,0,0); font-family:{}; font-size:10.00pt; text-anchor:middle" transform="translate(180.3,409.3)">
		<text><tspan>100</tspan></text>
	</g>
	<path d="M243.4,393.6 L243.4,385.2 M243.4,11.3 L243.4,19.7  h0.01" stroke="black"/>	<g style="stroke:none; fill:rgb(0,0,0); font-family:{}; font-size:10.00pt; text-anchor:middle" transform="translate(243.4,409.3)">
		<text><tspan>150</tspan></text>
	</g>
	<path d="M306.6,393.6 L306.6,385.2 M306.6,11.3 L306.6,19.7  h0.01" stroke="black"/>	<g style="stroke:none; fill:rgb(0,0,0); font-family:{}; font-size:10.00pt; text-anchor:middle" transform="translate(306.6,409.3)">
		<text><tspan>200</tspan></text>
	</g>
	<path d="M369.7,393.6 L369.7,385.2 M369.7,11.3 L369.7,19.7  h0.01" stroke="black"/>	<g style="stroke:none; fill:rgb(0,0,0); font-family:{}; font-size:10.00pt; text-anchor:middle" transform="translate(369.7,409.3)">
		<text><tspan>250</tspan></text>
	</g>
	<path d="M432.8,393.6 L432.8,385.2 M432.8,11.3 L432.8,19.7  h0.01" stroke="black"/>	<g style="stroke:none; fill:rgb(0,0,0); font-family:{}; font-size:10.00pt; text-anchor:middle" transform="translate(432.8,409.3)">
		<text><tspan>300</tspan></text>
	</g>
	<path d="M496.0,393.6 L496.0,385.2 M496.0,11.3 L496.0,19.7  h0.01" stroke="black"/>	<g style="stroke:none; fill:rgb(0,0,0); font-family:{}; font-size:10.00pt; text-anchor:middle" transform="translate(496.0,409.3)">
		<text><tspan>350</tspan></text>
	</g>
	<path d="M559.1,393.6 L559.1,385.2 M559.1,11.3 L559.1,19.7  h0.01" stroke="black"/>	<g style="stroke:none; fill:rgb(0,0,0); font-family:{}; font-size:10.00pt; text-anchor:middle" transform="translate(559.1,409.3)">
		<text><tspan>400</tspan></text>
	</g>
	<path d="M54.0,11.3 L54.0,393.6 L559.1,393.6 L559.1,11.3 L54.0,11.3 Z  h0.01" stroke="black"/>	<g style="stroke:none; fill:rgb(0,0,0); font-family:{}; font-size:10.00pt; text-anchor:middle" transform="translate(12.5,202.5) rotate(-90)">
		<text><tspan>Cost J</tspan></text>
	</g>
	<g style="stroke:none; fill:rgb(0,0,0); font-family:{}; font-size:10.00pt; text-anchor:middle" transform="translate(306.5,427.3)">
		<text><tspan>Number of iterations</tspan></text>
	</g>
</g>
	<g id="gnuplot_plot_1a"><title>gnuplot_plot_1a</title>
<g style="fill:none; color:white; stroke:black; stroke-width:2.00; stroke-linecap:butt; stroke-linejoin:miter">
</g>
<g style="fill:none; color:red; stroke:currentColor; stroke-width:2.00; stroke-linecap:butt; stroke-linejoin:miter">
	<path d="M55.3,42.4 L56.5,49.3 L57.8,56.1 L59.1,62.7 L60.3,69.2 L61.6,75.5 L62.8,81.8 L64.1,87.8    L65.4,93.8 L66.6,99.6 L67.9,105.4 L69.2,111.0 L70.4,116.4 L71.7,121.8 L72.9,127.1 L74.2,132.2    L75.5,137.3 L76.7,142.2 L78.0,147.0 L79.3,151.8 L80.5,156.4 L81.8,161.0 L83.0,165.4 L84.3,169.8    L85.6,174.0 L86.8,178.2 L88.1,182.3 L89.4,186.3 L90.6,190.3 L91.9,194.1 L93.1,197.9 L94.4,201.6    L95.7,205.2 L96.9,208.7 L98.2,212.2 L99.5,215.6 L100.7,218.9 L102.0,222.2 L103.2,225.4 L104.5,228.5    L105.8,231.6 L107.0,234.6 L108.3,237.5 L109.6,240.4 L110.8,243.2 L112.1,246.0 L113.3,248.7 L114.6,251.4    L115.9,254.0 L117.1,256.5 L118.4,259.0 L119.7,261.5 L120.9,263.9 L122.2,266.2 L123.5,268.5 L124.7,270.8    L126.0,273.0 L127.2,275.1 L128.5,277.3 L129.8,279.3 L131.0,281.4 L132.3,283.4 L133.6,285.3 L134.8,287.2    L136.1,289.1 L137.3,290.9 L138.6,292.7 L139.9,294.5 L141.1,296.2 L142.4,297.9 L143.7,299.6 L144.9,301.2    L146.2,302.8 L147.4,304.4 L148.7,305.9 L150.0,307.4 L151.2,308.9 L152.5,310.3 L153.8,311.7 L155.0,313.1    L156.3,314.4 L157.5,315.8 L158.8,317.1 L160.1,318.3 L161.3,319.6 L162.6,320.8 L163.9,322.0 L165.1,323.2    L166.4,324.3 L167.6,325.5 L168.9,326.6 L170.2,327.7 L171.4,328.7 L172.7,329.8 L174.0,330.8 L175.2,331.8    L176.5,332.8 L177.7,333.7 L179.0,334.7 L180.3,335.6 L181.5,336.5 L182.8,337.4 L184.1,338.3 L185.3,339.1    L186.6,339.9 L187.9,340.8 L189.1,341.6 L190.4,342.3 L191.6,343.1 L192.9,343.9 L194.2,344.6 L195.4,345.3    L196.7,346.0 L198.0,346.7 L199.2,347.4 L200.5,348.1 L201.7,348.8 L203.0,349.4 L204.3,350.0 L205.5,350.6    L206.8,351.3 L208.1,351.8 L209.3,352.4 L210.6,353.0 L211.8,353.6 L213.1,354.1 L214.4,354.6 L215.6,355.2    L216.9,355.7 L218.2,356.2 L219.4,356.7 L220.7,357.2 L221.9,357.7 L223.2,358.1 L224.5,358.6 L225.7,359.0    L227.0,359.5 L228.3,359.9 L229.5,360.3 L230.8,360.7 L232.0,361.2 L233.3,361.6 L234.6,361.9 L235.8,362.3    L237.1,362.7 L238.4,363.1 L239.6,363.4 L240.9,363.8 L242.1,364.1 L243.4,364.5 L244.7,364.8 L245.9,365.1    L247.2,365.5 L248.5,365.8 L249.7,366.1 L251.0,366.4 L252.3,366.7 L253.5,367.0 L254.8,367.3 L256.0,367.6    L257.3,367.8 L258.6,368.1 L259.8,368.4 L261.1,368.6 L262.4,368.9 L263.6,369.1 L264.9,369.4 L266.1,369.6    L267.4,369.8 L268.7,370.1 L269.9,370.3 L271.2,370.5 L272.5,370.7 L273.7,371.0 L275.0,371.2 L276.2,371.4    L277.5,371.6 L278.8,371.8 L280.0,372.0 L281.3,372.2 L282.6,372.3 L283.8,372.5 L285.1,372.7 L286.3,372.9    L287.6,373.0 L288.9,373.2 L290.1,373.4 L291.4,373.5 L292.7,373.7 L293.9,373.9 L295.2,374.0 L296.4,374.2    L297.7,374.3 L299.0,374.5 L300.2,374.6 L301.5,374.7 L302.8,374.9 L304.0,375.0 L305.3,375.1 L306.6,375.3    L307.8,375.4 L309.1,375.5 L310.3,375.6 L311.6,375.8 L312.9,375.9 L314.1,376.0 L315.4,376.1 L316.7,376.2    L317.9,376.3 L319.2,376.4 L320.4,376.5 L321.7,376.6 L323.0,376.7 L324.2,376.8 L325.5,376.9 L326.8,377.0    L328.0,377.1 L329.3,377.2 L330.5,377.3 L331.8,377.4 L333.1,377.5 L334.3,377.6 L335.6,377.7 L336.9,377.7    L338.1,377.8 L339.4,377.9 L340.6,378.0 L341.9,378.1 L343.2,378.1 L344.4,378.2 L345.7,378.3 L347.0,378.3    L348.2,378.4 L349.5,378.5 L350.7,378.5 L352.0,378.6 L353.3,378.7 L354.5,378.7 L355.8,378.8 L357.1,378.9    L358.3,378.9 L359.6,379.0 L360.8,379.0 L362.1,379.1 L363.4,379.2 L364.6,379.2 L365.9,379.3 L367.2,379.3    L368.4,379.4 L369.7,379.4 L371.0,379.5 L372.2,379.5 L373.5,379.6 L374.7,379.6 L376.0,379.7 L377.3,379.7    L378.5,379.7 L379.8,379.8 L381.1,379.8 L382.3,379.9 L383.6,379.9 L384.8,380.0 L386.1,380.0 L387.4,380.0    L388.6,380.1 L389.9,380.1 L391.2,380.2 L392.4,380.2 L393.7,380.2 L394.9,380.3 L396.2,380.3 L397.5,380.3    L398.7,380.4 L400.0,380.4 L401.3,380.4 L402.5,380.5 L403.8,380.5 L405.0,380.5 L406.3,380.5 L407.6,380.6    L408.8,380.6 L410.1,380.6 L411.4,380.7 L412.6,380.7 L413.9,380.7 L415.1,380.7 L416.4,380.8 L417.7,380.8    L418.9,380.8 L420.2,380.8 L421.5,380.9 L422.7,380.9 L424.0,380.9 L425.2,380.9 L426.5,381.0 L427.8,381.0    L429.0,381.0 L430.3,381.0 L431.6,381.0 L432.8,381.1 L434.1,381.1 L435.4,381.1 L436.6,381.1 L437.9,381.2    L439.1,381.2 L440.4,381.2 L441.7,381.2 L442.9,381.2 L444.2,381.2 L445.5,381.3 L446.7,381.3 L448.0,381.3    L449.2,381.3 L450.5,381.3 L451.8,381.3 L453.0,381.4 L454.3,381.4 L455.6,381.4 L456.8,381.4 L458.1,381.4    L459.3,381.4 L460.6,381.4 L461.9,381.5 L463.1,381.5 L464.4,381.5 L465.7,381.5 L466.9,381.5 L468.2,381.5    L469.4,381.5 L470.7,381.6 L472.0,381.6 L473.2,381.6 L474.5,381.6 L475.8,381.6 L477.0,381.6 L478.3,381.6    L479.5,381.6 L480.8,381.6 L482.1,381.7 L483.3,381.7 L484.6,381.7 L485.9,381.7 L487.1,381.7 L488.4,381.7    L489.6,381.7 L490.9,381.7 L492.2,381.7 L493.4,381.7 L494.7,381.8 L496.0,381.8 L497.2,381.8 L498.5,381.8    L499.8,381.8 L501.0,381.8 L502.3,381.8 L503.5,381.8 L504.8,381.8 L506.1,381.8 L507.3,381.8 L508.6,381.9    L509.9,381.9 L511.1,381.9 L512.4,381.9 L513.6,381.9 L514.9,381.9 L516.2,381.9 L517.4,381.9 L518.7,381.9    L520.0,381.9 L521.2,381.9 L522.5,381.9 L523.7,381.9 L525.0,381.9 L526.3,381.9 L527.5,382.0 L528.8,382.0    L530.1,382.0 L531.3,382.0 L532.6,382.0 L533.8,382.0 L535.1,382.0 L536.4,382.0 L537.6,382.0 L538.9,382.0    L540.2,382.0 L541.4,382.0 L542.7,382.0 L543.9,382.0 L545.2,382.0 L546.5,382.0 L547.7,382.0 L549.0,382.0    L550.3,382.1 L551.5,382.1 L552.8,382.1 L554.0,382.1 L555.3,382.1 L556.6,382.1 L557.8,382.1 L559.1,382.1     h0.01" stroke="rgb(  0,   0, 255)"/></g>
	</g>
<g style="fill:none; color:white; stroke:rgb(  0,   0, 255); stroke-width:0.50; stroke-linecap:butt; stroke-linejoin:miter">
</g>
<g style="fill:none; color:black; stroke:currentColor; stroke-width:0.50; stroke-linecap:butt; stroke-linejoin:miter">
</g>
</g>
</svg>